<svg xmlns="http://www.w3.org/2000/svg" width="900" height="260" viewBox="0 0 900 260">
  <rect width="900" height="260" rx="24" fill="#f7f9fc"/>
  <g font-family="Arial, Helvetica, sans-serif" text-anchor="middle">
    <text x="450" y="38" font-size="24" font-weight="700" fill="#162033">Analytics Portfolio Focus</text>
    <g transform="translate(60,75)">
      <rect x="0" y="0" width="160" height="110" rx="18" fill="#ffffff" stroke="#d8e0ef"/>
      <text x="80" y="42" font-size="18" font-weight="700" fill="#1f2937">Data</text>
      <text x="80" y="72" font-size="14" fill="#526172">Python / SQL</text>
      <text x="80" y="94" font-size="14" fill="#526172">PySpark</text>
    </g>
    <g transform="translate(265,75)">
      <rect x="0" y="0" width="160" height="110" rx="18" fill="#ffffff" stroke="#d8e0ef"/>
      <text x="80" y="42" font-size="18" font-weight="700" fill="#1f2937">Models</text>
      <text x="80" y="72" font-size="14" fill="#526172">Classification</text>
      <text x="80" y="94" font-size="14" fill="#526172">Forecasting</text>
    </g>
    <g transform="translate(470,75)">
      <rect x="0" y="0" width="160" height="110" rx="18" fill="#ffffff" stroke="#d8e0ef"/>
      <text x="80" y="42" font-size="18" font-weight="700" fill="#1f2937">Insights</text>
      <text x="80" y="72" font-size="14" fill="#526172">Tableau</text>
      <text x="80" y="94" font-size="14" fill="#526172">Visualization</text>
    </g>
    <g transform="translate(675,75)">
      <rect x="0" y="0" width="160" height="110" rx="18" fill="#ffffff" stroke="#d8e0ef"/>
      <text x="80" y="42" font-size="18" font-weight="700" fill="#1f2937">Business</text>
      <text x="80" y="72" font-size="14" fill="#526172">Recommendations</text>
      <text x="80" y="94" font-size="14" fill="#526172">Strategy</text>
    </g>
    <text x="450" y="225" font-size="15" fill="#526172">Business analytics student combining audit, operations, and data-driven decision making.</text>
  </g>
</svg>